<svg xmlns="http://www.w3.org/2000/svg" viewBox="0 0 379.76 379.76"><defs><style>.a{fill:#0b6dc3;}.b{fill:#fff;}</style></defs><circle class="a" cx="189.88" cy="189.88" r="189.88"/><path class="b" d="M328.24,197.47c-5.12-6-25.38-29.06-59.3-35.47a96.75,96.75,0,0,0-28.59-1.06,81.72,81.72,0,0,0,21.36-54.7,176.21,176.21,0,0,1-20.3,27.35c-12.42,13.73-24.66,22.85-42,35.65-24.61,18.15-27.87,17.64-35.68,27.49-7.39,9.33-8.14,14.38-18.32,32.68a344.37,344.37,0,0,1-20.47,32.47c8.48-1.05,20.85-2.85,35.65-6,19.2-4.09,23.93-6.5,35.44-9.82,0,0,6.51-1.86,14-3.59,28-6.49,41.54-4,45.48-12,1.41-2.88,2-8,2.17-9.49a47,47,0,0,0,0-10.06,49.82,49.82,0,0,0-3.71-14.29,36.32,36.32,0,0,1,8.12,32.65c5.12,2.31,16.84,8.5,24.18,21.7,10.33,18.58,8.56,44.9-8.3,61.59-19.5,19.31-46.84,13.49-48.7,13.06a98.91,98.91,0,0,0,49.58,46.59c5.73-1.85,52.41-17.75,70.06-66.71C363.56,264.75,350.22,223.23,328.24,197.47Zm-124.42,2.29c-.69,10.63-7.7,17.94-8.11,18.36-5.31,5.38-11.07,7-17.12,8.64-3.15.88-9.63,2.66-10.94.53-.72-1.16.32-3.15,3.35-7.23,6.08-8.17,12.3-14.14,21.35-21.18,6-4.67,8.61-6.19,10.19-5.25S204,197.57,203.82,199.76Z" transform="translate(-50.12 -50.12)"/><path class="b" d="M128.82,282.71a157.52,157.52,0,0,0,83-19.77c-3.36,4.93-17.27,26.55-12.71,55.41,5.69,36,35.35,53.27,39.18,55.41-9.81,0-39.19-1.23-67.06-22.23C138,326.52,130.4,291.18,128.82,282.71Z" transform="translate(-50.12 -50.12)"/></svg>