<svg xmlns="http://www.w3.org/2000/svg" viewBox="0 0 379.76 379.76"><defs><style>.a{fill:#ff9d55;}.b{fill:#fff;}</style></defs><circle class="a" cx="189.88" cy="189.88" r="189.88"/><path class="b" d="M232.55,103.48a85.52,85.52,0,0,1,.53,34.94c-5.38,26.12-29.75,27.94-47.65,53.47C159.05,229.52,168,279.77,168,279.77a62.25,62.25,0,0,1-7.05-10.94c-2.91-5.76-5.23-12.58-6.71-24.71a165.19,165.19,0,0,1,0-39.17,123.9,123.9,0,0,0-17.14,61.29c-.07,10.14-.4,58.39,38.85,89.24,33.14,26,78.28,24.66,108,11.64,24.19-10.59,38.64-32.82,38.64-32.82C314.19,340.19,292,354,262.71,352c-10.08-.69-31.47-2.16-46.39-18.93-3.2-3.6-13.27-15.25-12.87-32.44.1-4.54,1.24-23.3,17.1-33.92,13.45-9,32.5-8.81,45.18,1.41,12.29,9.92,13.29,25,13.5,28.05.26,4,.8,14.4-6.18,24.37a36.24,36.24,0,0,1-16.94,13,76.86,76.86,0,0,0,21,.71c3.71-.39,19.82-1.76,33.3-11.57,28.41-20.68,30.47-56.94,30.7-62.47,1.15-27.78-11.76-47.6-15.88-53.47a88.68,88.68,0,0,0-32.29-27.88,37.36,37.36,0,0,1,8.67,16.52c.8,3.49,3.86,16.7-5,27.77-9.28,11.65-23.44,11.19-24.88,11.12s-16.14-1.05-23.82-13.76c-5.85-9.68-5.89-23.2,1.94-32.47,7.47-8.86,18.44-9.46,20.47-9.53a80.78,80.78,0,0,0-37.77-75Z" transform="translate(-50.12 -50.12)"/></svg>