<svg xmlns="http://www.w3.org/2000/svg" viewBox="0 0 379.76 379.76"><defs><style>.a{fill:#5269ad;}.b{fill:#fff;}</style></defs><circle class="a" cx="189.88" cy="189.88" r="189.88"/><path class="b" d="M321.89,323c-.84-6.14,4.8-11.53,6.63-13.39C347,290.84,353.3,250,353.3,238.9A113.29,113.29,0,0,0,240,125.61c-67.56,0-112.37,60.78-113.3,113.29-.73,41.39,25.92,70.75,31.35,76.48,26.23,27.69,59.59,33.12,81.95,36.82,21.5,3.56,37.74,2.08,55.41.47C316.73,350.73,341.1,346,341.3,340,341.47,334.73,323.25,333,321.89,323ZM200.57,247.49a26,26,0,0,1-13.74-48.13c0,.36,0,.73,0,1.1a26,26,0,0,0,39.77,22.11A26,26,0,0,1,200.57,247.49Zm80.29,0a26,26,0,0,1-26-24.92,26,26,0,0,0,39.76-22.11c0-.37,0-.74,0-1.1a26,26,0,0,1-13.73,48.13Z" transform="translate(-50.12 -50.12)"/></svg>