<svg xmlns="http://www.w3.org/2000/svg" viewBox="0 0 379.76 379.76"><defs><style>.a{fill:#73cec0;}.b{fill:#fff;}</style></defs><circle class="a" cx="189.88" cy="189.88" r="189.88"/><polygon class="b" points="183.2 176.43 114.73 141.84 114.73 73.37 183.2 108.66 183.2 176.43"/><polygon class="b" points="183.2 202.54 114.73 237.13 114.73 305.6 183.2 270.31 183.2 202.54"/><polygon class="b" points="114.73 224.16 49.35 189.37 116.8 156.4 183.2 190.28 114.73 224.16"/><polygon class="b" points="196.57 177.22 265.04 142.63 265.04 74.16 196.57 109.46 196.57 177.22"/><polygon class="b" points="196.57 203.34 265.04 237.93 265.04 306.4 196.57 271.1 196.57 203.34"/><polygon class="b" points="265.04 224.96 330.42 190.16 262.96 157.19 196.57 191.07 265.04 224.96"/></svg>