<svg xmlns="http://www.w3.org/2000/svg" viewBox="0 0 379.76 379.76"><defs><style>.a{fill:#5090d6;}.b{fill:#fff;}</style></defs><circle class="a" cx="189.88" cy="189.88" r="189.88"/><path class="b" d="M320.19,263.25a83.38,83.38,0,0,0-5.25-16c-4.94-11.42-74.94-130-74.94-130s-70,118.59-74.94,130a83.38,83.38,0,0,0-5.25,16,94.1,94.1,0,0,0-1.87,17.44,82.06,82.06,0,1,0,164.12,0A94.1,94.1,0,0,0,320.19,263.25ZM236.65,338a45.88,45.88,0,0,1-39.14-69.83c0,.51,0,1,0,1.54a45.88,45.88,0,0,0,85,23.95A45.87,45.87,0,0,1,236.65,338Z" transform="translate(-50.12 -50.12)"/></svg>