<svg xmlns="http://www.w3.org/2000/svg" viewBox="0 0 379.76 379.76"><defs><style>.a{fill:#91c12f;}.b{fill:#fff;}</style></defs><circle class="a" cx="189.88" cy="189.88" r="189.88"/><path class="b" d="M347.56,261.6A106.29,106.29,0,0,0,314,184a106.36,106.36,0,0,1-54.72,30.2c-4.54,12.14-10.55,32.37-10.55,54.3,0,36.56,12.83,69.34,33.14,91.57A106.62,106.62,0,0,0,347.56,261.6Z" transform="translate(-50.12 -50.12)"/><path class="b" d="M132.44,261.39A106.29,106.29,0,0,1,166,183.77,106.43,106.43,0,0,0,220.71,214c4.54,12.13,10.55,32.37,10.55,54.3,0,36.56-12.83,69.34-33.14,91.57A106.62,106.62,0,0,1,132.44,261.39Z" transform="translate(-50.12 -50.12)"/><path class="b" d="M270.37,159.14l19.4-29a5.43,5.43,0,0,0-1.49-7.53l-2.64-1.76a5.43,5.43,0,0,0-7.53,1.49L255.58,156a106.91,106.91,0,0,0-31.66.35l-22.77-34a5.41,5.41,0,0,0-7.52-1.49L191,122.63a5.43,5.43,0,0,0-1.5,7.53l19.85,29.65a106.37,106.37,0,0,0-30.71,15.33,87.87,87.87,0,0,0,120.59-2.81A106.31,106.31,0,0,0,270.37,159.14Z" transform="translate(-50.12 -50.12)"/></svg>