<svg xmlns="http://www.w3.org/2000/svg" viewBox="0 0 379.76 379.76"><defs><style>.a{fill:#ce416b;}.b{fill:#fff;}</style></defs><circle class="a" cx="189.88" cy="189.88" r="189.88"/><path class="b" d="M353.69,155.82H332a7.15,7.15,0,0,0-7.15,7.15v54.12a5,5,0,0,1-5,5H313.4a5,5,0,0,1-5-5V163a7.15,7.15,0,0,0-7.15-7.15H279.57a7.15,7.15,0,0,0-7.14,7.15v54.12a5,5,0,0,1-5,5H261a5,5,0,0,1-5-5V163a7.15,7.15,0,0,0-7.14-7.15H227.16A7.15,7.15,0,0,0,220,163v54.12a5,5,0,0,1-5,5h-6.47a5,5,0,0,1-5-5V163a7.15,7.15,0,0,0-7.14-7.15H174.75A7.15,7.15,0,0,0,167.6,163V317a7.15,7.15,0,0,0,7.15,7.15H353.69a7.15,7.15,0,0,0,7.15-7.15V163A7.15,7.15,0,0,0,353.69,155.82Z" transform="translate(-50.12 -50.12)"/><path class="b" d="M119.16,266.21V280.9a9.63,9.63,0,0,0,1.22,4.7l19.5,34.91a7.15,7.15,0,0,0,6.24,3.67h4.8a7.16,7.16,0,0,0,7.15-7.16V217a7.16,7.16,0,0,0-7.15-7.16h-7.86a7.15,7.15,0,0,0-6.41,4l-16.49,33.44a9.56,9.56,0,0,0-1,4.26Z" transform="translate(-50.12 -50.12)"/></svg>