<svg xmlns="http://www.w3.org/2000/svg" viewBox="0 0 379.76 379.76"><defs><style>.a{fill:#89aae3;}.b{fill:#fff;}</style></defs><circle class="a" cx="189.88" cy="189.88" r="189.88"/><path class="b" d="M333.82,237.38A69.58,69.58,0,0,1,305.5,267c-24.53,13.5-48.82,6.85-53.74,5.39,4.78,2.7,25.15,13.47,49.5,6.79a62.94,62.94,0,0,0,25.68-14.29A50.73,50.73,0,0,1,276.65,298a71.17,71.17,0,0,1-14.83,28.59c-22.5,26-56.68,25.23-60.88,25.06C158.73,350,118.35,311,118.35,269.05c0-31.83,19.91-54,23.16-57.34,15.41-16,30.31-23.83,59.43-25.25,10.05.49,24.33.82,41.41,0,37.89-1.88,60.49-3,81.94-16.29,9.19-5.69,24.49-17.53,36.53-41.82.87,6.48,5.79,48.32-24.35,82.85-36.4,41.7-90.76,34.75-94.69,34.18a80.15,80.15,0,0,0,92-8Z" transform="translate(-50.12 -50.12)"/></svg>