<svg xmlns="http://www.w3.org/2000/svg" viewBox="0 0 379.76 379.76"><defs><style>.a{fill:#63bc5a;}.b{fill:#fff;}</style></defs><circle class="a" cx="189.88" cy="189.88" r="189.88"/><path class="b" d="M341,119.39s-74.11-.07-119.64,19.06c-29.49,12.38-64.89,27.25-82,64.25-11.7,25.25-9.38,48.91-8.5,57a117.82,117.82,0,0,0,23.35,57.88q8.24-7.94,17.74-17.25,5-4.9,9.65-9.51c-2.39-34.79-5.68-86.45-4.16-86.71,2.32-.39,7.73,12.39,21.31,69.56,7.23-7.29,13.57-13.76,18.93-19.26q9.42-9.67,17.65-18.27c-1.8-23.24-4.55-61-3.53-61.14,1.5-.26,8.42,8.21,18,46,41-43.39,56.09-61.95,58.45-60.27,2.14,1.53-6.74,19.42-40,72.34,38.11.9,48.24,5.48,48.33,7s-36,7.34-59.69,10.94c-8.13,12.75-17.41,27.15-28,43.37,58.12.38,71.82,2.75,72,5.08S248.78,311,214.07,316.81q-9.85,15-21,31.89c17.48,8.47,44,16.46,74,8.87,29.32-7.43,47.31-25.89,53.78-33.3,26-29.78,27.4-65.57,29.11-109.06C350.86,192,341,119.39,341,119.39Z" transform="translate(-50.12 -50.12)"/></svg>