<svg xmlns="http://www.w3.org/2000/svg" viewBox="0 0 379.76 379.76"><defs><style>.a{fill:#b567ce;}.b{fill:#fff;}</style></defs><circle class="a" cx="189.88" cy="189.88" r="189.88"/><path class="b" d="M354,226.68c0-54.84-51-99.3-114-99.3s-114,44.46-114,99.3c0,29.9,15.18,56.71,39.18,74.91a41.94,41.94,0,0,0-3.53,17.06c0,18.76,11.69,34,26.11,34,13.22,0,24.13-12.76,25.87-29.32l.84.17c1.8,16.48,12.69,29.15,25.85,29.15s24.11-12.74,25.87-29.29l.81-.17c1.7,16.63,12.63,29.46,25.88,29.46,14.43,0,26.12-15.21,26.12-34a41.74,41.74,0,0,0-3.7-17.43C339,283,354,256.38,354,226.68ZM240,284.32c-36.55,0-66.18-25.81-66.18-57.64S203.45,169,240,169s66.18,25.81,66.18,57.65S276.55,284.32,240,284.32Z" transform="translate(-50.12 -50.12)"/></svg>