<svg xmlns="http://www.w3.org/2000/svg" viewBox="0 0 379.76 379.76"><defs><style>.a{fill:#fa7179;}.b{fill:#fff;}</style></defs><circle class="a" cx="189.88" cy="189.88" r="189.88"/><path class="b" d="M334.58,323.76c-11.33,6.1-39.19,19-74.91,14.55-12.34-1.54-46.93-5.95-70.86-35.73-4.88-6.07-23.7-30.29-20.12-64.23,1.09-10.24,5.56-34.19,26.48-52.59,6.61-5.82,26-20.89,53.32-19.47,6.68.35,26.46,1.68,43,17.35,4,3.75,18.89,18.33,19.41,41.3.11,5,.23,21.54-12.1,35.61-2.06,2.36-16.13,17.88-37.66,16.62-4-.23-17.8-1.26-28.24-12.71-1.59-1.74-12-13.48-9.88-29.64.43-3.33,1.63-12.66,9.72-19.66a28.85,28.85,0,0,1,20-6.76c3.51.18,13.27,1.35,19.7,9.48,1.5,1.89,5.38,6.79,4.94,13.41-.59,8.89-8.8,18.29-18.35,17.65A16.4,16.4,0,0,1,246,240.11a17.25,17.25,0,0,1-1-12.94,19.56,19.56,0,0,0,2.09,28.12c4.65,4,9.75,4.59,12.7,4.94,2,.24,12.84,1.31,22.24-6,11.73-9.13,11.66-23.84,11.65-26.47-.1-18.79-15.37-29.82-17.65-31.41a43.4,43.4,0,0,0-23.64-7.45c-3.34-.14-19.23-.49-33.18,11-16,13.11-17.57,32-18,37.06-2.33,27.34,16,46.06,19.05,49.05,18.53,18.3,41.79,18.7,48.71,18.71,31.84,0,52.17-21,56.82-26.12,19.61-21.6,20.68-46.91,20.87-54.34,1.14-42.78-30.06-69.52-33.93-72.72-24.78-20.53-52.56-21.39-64.22-21.58-43.19-.71-72,23.91-76.95,28.29-9.67,8.53-36.75,35.38-38.12,78-1.34,41.54,22.67,69.61,31.41,78.71,30.18,31.37,68.5,34.17,82.24,34.94C292,352.37,324.36,331.11,334.58,323.76Z" transform="translate(-50.12 -50.12)"/></svg>